<!DOCTYPE svg PUBLIC "-//W3C//DTD SVG 1.1//EN" "http://www.w3.org/Graphics/SVG/1.1/DTD/svg11.dtd">

<!-- Uploaded to: SVG Repo, www.svgrepo.com, Transformed by: SVG Repo Mixer Tools -->
<svg class="Sports-svg" width="64px" height="64px" viewBox="0 0 24 24" fill="#7c1711">

<g id="SVGRepo_bgCarrier" stroke-width="0"/>

<g id="SVGRepo_tracerCarrier" stroke-linecap="round" stroke-linejoin="round"/>

<g id="SVGRepo_iconCarrier"> <path fill="none" stroke="#7c1711" stroke-linecap="round" stroke-linejoin="round" stroke-width="2" d="M15,11 L18,13 M18,5 C18.5522847,5 19,4.55228475 19,4 C19,3.44771525 18.5522847,3 18,3 C17.4477153,3 17,3.44771525 17,4 C17,4.55228475 17.4477153,5 18,5 Z M9.5,9.5 L9.52493781,6 L14.0249378,6 L15,6 L8,17 L4,17 M15,8 L12,13 L12.5,14 L17,7.5 L15,6 M11,13 L16,16.5 L16,21.5"/> </g>

</svg>